<svg width="469" height="370" viewBox="0 0 469 370" fill="none" xmlns="http://www.w3.org/2000/svg">
<path d="M31.2595 321.204C20.4815 309.749 12.1935 295.353 7.22752 277.789C-4.87748 234.976 -3.36048 182.679 24.0095 145.862C41.0155 122.986 66.1395 107.245 93.8015 100.842C122.57 94.1828 129.779 68.7068 148.321 48.6678C163.96 31.7658 185.641 18.3618 207.015 10.1678C264.454 -11.8522 350.655 0.836769 383.94 58.6108C392.662 73.7498 395.558 92.3598 405.789 106.627C416.735 121.891 434.679 129.466 445.734 144.433C456.907 159.56 463.383 177.91 465.809 196.465C468.959 220.558 465.633 245.098 459.781 268.68C431.568 382.367 277.522 350.191 190.222 354.045C164.218 355.193 138.171 358.071 112.223 356.013C82.1845 353.631 52.3245 343.593 31.2595 321.204Z" fill="#FFF4EB"/>
<path d="M233.441 369.892C351.491 369.892 447.188 359.935 447.188 347.652C447.188 335.369 351.491 325.412 233.441 325.412C115.392 325.412 19.6943 335.369 19.6943 347.652C19.6943 359.935 115.392 369.892 233.441 369.892Z" fill="#FFDAC2"/>
<path d="M267.271 217.938C268.153 221.492 267.792 225.225 267.294 228.863C266.524 234.528 265.428 240.199 263.236 245.487C260.513 252.051 255.958 258.312 250.232 262.586C248.695 263.735 247.165 264.523 245.615 265.07C244.329 265.525 243.038 265.81 241.709 266C238.924 266.398 236 266.365 232.784 266.541C217.56 267.367 202.948 264.855 189.89 256.523C185.855 253.952 182.01 250.829 179.681 246.644C178.404 244.355 177.66 241.69 177.663 239.078C177.657 237.714 177.861 236.363 178.293 235.087C178.537 234.345 178.865 233.635 179.276 232.954C182.629 227.407 190.023 226.025 196.503 226.05C188.098 224.673 180.196 220.384 174.467 214.079C171.223 210.509 168.59 205.939 168.614 201.185C168.617 200.661 168.654 200.141 168.721 199.612C168.831 198.783 169.061 197.972 169.391 197.195C171.144 192.981 175.765 189.824 180.046 191.277C176.132 186.212 172.211 181.149 168.29 176.086C165.524 172.501 162.702 168.844 161.187 164.569C159.921 160.992 159.695 156.859 161.193 153.431C161.478 152.766 161.832 152.137 162.252 151.535C162.595 151.049 162.988 150.594 163.424 150.192C166.297 147.475 170.972 146.543 174.162 148.854C171.394 142.135 168.597 135.303 167.841 128.076C167.093 120.846 168.646 113.039 173.637 107.75C174.887 106.423 176.386 105.31 178.019 104.458C179.195 103.842 180.447 103.357 181.731 103.026C185.732 101.983 190.031 102.424 193.4 104.809C197.496 107.721 199.476 112.729 201.149 117.468C203.483 124.081 205.646 130.749 207.636 137.464C206.849 132.35 212.253 127.762 217.41 128.148C218.197 128.205 218.965 128.351 219.706 128.571C221.064 128.976 222.341 129.637 223.497 130.484C225.858 132.203 227.754 134.686 228.946 137.37C231.043 142.104 231.37 147.391 231.674 152.554C232.042 158.883 232.411 165.212 232.779 171.542C233.103 166.855 238.63 163.742 243.196 164.858C243.437 164.92 243.68 164.989 243.918 165.068C245.305 165.513 246.559 166.255 247.672 167.198C249.906 169.105 251.533 171.846 252.373 174.71C253.701 179.217 253.423 184.019 253.13 188.704C252.613 197.061 252.096 205.419 251.579 213.776C252.436 210.947 255.509 209.311 258.489 209.416C259.206 209.431 259.909 209.556 260.581 209.79C261.163 209.995 261.714 210.26 262.241 210.573C264.791 212.142 266.538 214.975 267.271 217.938Z" fill="#C3B7FC"/>
<path d="M236.471 248.31C239.368 253.981 242.395 259.593 245.614 265.07C244.328 265.525 243.037 265.81 241.708 266C240.919 264.642 240.137 263.282 239.376 261.907C237.006 257.646 234.703 253.339 232.454 248.998C213.637 250.048 194.828 246.628 177.662 239.079C177.656 237.715 177.86 236.364 178.292 235.088C194.646 242.449 212.495 245.916 230.499 245.185C225.519 235.357 220.836 225.36 216.39 215.262C199.618 213.846 183.37 209.102 168.613 201.186C168.616 200.662 168.653 200.142 168.72 199.613C168.83 198.784 169.06 197.973 169.39 197.196C183.357 204.843 198.726 209.656 214.63 211.221C210.001 200.528 205.624 189.729 201.425 178.921C201.305 178.624 201.192 178.325 201.079 178.026C185.57 173.822 172.646 164.383 161.192 153.432C161.477 152.767 161.831 152.138 162.251 151.536C162.594 151.05 162.987 150.595 163.423 150.193C173.818 160.217 185.476 169.056 199.321 173.453C194.474 160.735 189.923 147.897 185.776 134.937C182.573 124.938 179.749 114.793 178.018 104.459C179.194 103.843 180.446 103.358 181.73 103.027C183.772 115.65 187.518 127.945 191.561 140.095C195.365 151.505 199.431 162.838 203.734 174.07C207.695 171.379 209.837 167.179 211.531 162.731C213.453 157.669 215.046 152.427 216.459 147.21C218.123 141.069 219.343 134.842 219.705 128.573C221.063 128.978 222.34 129.639 223.496 130.486C222.931 137.271 221.448 144 219.547 150.577C216.832 159.961 214.214 172.39 205.17 177.773C209.847 189.809 214.8 201.74 220.049 213.544C234.147 201.265 242.64 183.523 243.916 165.07C245.303 165.515 246.557 166.257 247.67 167.2C245.859 186.382 236.538 204.577 221.7 217.226C222.882 219.857 224.07 222.477 225.279 225.091C228.317 231.657 231.422 238.251 234.683 244.77C246.066 235.648 255.585 223.533 258.487 209.417C259.204 209.432 259.907 209.557 260.579 209.791C261.161 209.996 261.712 210.261 262.239 210.574C258.996 225.659 248.715 238.608 236.471 248.31Z" fill="#DFDBFC"/>
<path d="M354.588 245.822C353.777 249.089 354.109 252.521 354.567 255.865C355.275 261.073 356.282 266.287 358.298 271.148C360.801 277.182 364.988 282.938 370.253 286.867C371.666 287.923 373.072 288.647 374.498 289.151C375.68 289.569 376.867 289.831 378.089 290.006C380.649 290.372 383.337 290.342 386.294 290.504C400.289 291.263 413.723 288.954 425.727 281.294C429.437 278.931 432.971 276.059 435.112 272.212C436.286 270.108 436.97 267.657 436.967 265.257C436.972 264.002 436.785 262.761 436.388 261.588C436.163 260.907 435.862 260.253 435.485 259.628C432.403 254.529 425.605 253.258 419.648 253.281C427.375 252.015 434.639 248.073 439.905 242.276C442.887 238.994 445.308 234.793 445.286 230.423C445.283 229.941 445.249 229.463 445.187 228.977C445.086 228.215 444.875 227.47 444.571 226.755C442.96 222.881 438.711 219.979 434.776 221.315C438.374 216.659 441.978 212.004 445.583 207.35C448.126 204.054 450.72 200.692 452.113 196.762C453.277 193.474 453.485 189.674 452.107 186.522C451.845 185.911 451.52 185.333 451.133 184.78C450.818 184.333 450.456 183.915 450.056 183.546C447.415 181.048 443.117 180.191 440.184 182.316C442.729 176.139 445.3 169.859 445.995 163.214C446.683 156.568 445.255 149.39 440.667 144.528C439.518 143.308 438.14 142.285 436.639 141.501C435.558 140.935 434.407 140.489 433.226 140.184C429.548 139.225 425.596 139.631 422.498 141.823C418.732 144.5 416.912 149.104 415.374 153.461C413.229 159.54 411.24 165.67 409.411 171.844C410.135 167.142 405.166 162.925 400.426 163.28C399.702 163.333 398.997 163.467 398.315 163.669C397.067 164.042 395.893 164.649 394.83 165.428C392.659 167.008 390.916 169.29 389.821 171.759C387.893 176.111 387.592 180.971 387.313 185.718C386.974 191.536 386.636 197.355 386.297 203.174C385.999 198.866 380.918 196.003 376.721 197.029C376.5 197.086 376.276 197.149 376.057 197.222C374.782 197.631 373.629 198.314 372.606 199.18C370.552 200.933 369.056 203.454 368.284 206.086C367.063 210.229 367.319 214.644 367.588 218.951C368.063 226.634 368.539 234.317 369.014 242C368.226 239.399 365.401 237.895 362.662 237.992C362.003 238.006 361.357 238.121 360.739 238.336C360.204 238.525 359.697 238.768 359.213 239.056C356.867 240.493 355.261 243.098 354.588 245.822Z" fill="#E08675"/>
<path d="M382.901 273.743C380.237 278.956 377.455 284.116 374.496 289.151C375.678 289.569 376.865 289.831 378.087 290.006C378.812 288.757 379.531 287.507 380.231 286.243C382.41 282.326 384.527 278.366 386.594 274.375C403.893 275.34 421.183 272.196 436.965 265.256C436.97 264.001 436.783 262.76 436.386 261.587C421.352 268.354 404.943 271.541 388.392 270.869C392.97 261.835 397.276 252.644 401.363 243.361C416.782 242.059 431.718 237.698 445.284 230.421C445.281 229.939 445.247 229.461 445.185 228.975C445.084 228.213 444.873 227.468 444.569 226.753C431.729 233.783 417.6 238.208 402.98 239.647C407.235 229.817 411.259 219.889 415.12 209.953C415.23 209.68 415.334 209.405 415.438 209.13C429.696 205.265 441.576 196.588 452.106 186.52C451.844 185.909 451.519 185.331 451.132 184.778C450.817 184.331 450.455 183.913 450.055 183.544C440.499 192.759 429.781 200.885 417.054 204.927C421.51 193.235 425.693 181.433 429.506 169.519C432.45 160.327 435.047 151 436.638 141.501C435.557 140.935 434.406 140.489 433.225 140.184C431.347 151.788 427.904 163.091 424.188 174.261C420.691 184.75 416.953 195.168 412.997 205.494C409.355 203.02 407.386 199.159 405.829 195.07C404.062 190.417 402.598 185.597 401.298 180.801C399.768 175.156 398.647 169.431 398.314 163.667C397.066 164.04 395.892 164.647 394.829 165.426C395.349 171.664 396.712 177.85 398.459 183.896C400.955 192.523 403.362 203.949 411.675 208.897C407.376 219.962 402.822 230.93 397.997 241.781C385.037 230.493 377.229 214.183 376.056 197.219C374.781 197.628 373.628 198.311 372.605 199.177C374.27 216.811 382.838 233.538 396.479 245.166C395.392 247.584 394.3 249.993 393.188 252.396C390.395 258.432 387.541 264.494 384.543 270.487C374.079 262.101 365.328 250.964 362.66 237.987C362.001 238.001 361.355 238.116 360.737 238.331C360.202 238.52 359.695 238.763 359.211 239.051C362.193 252.92 371.645 264.824 382.901 273.743Z" fill="#D7594A"/>
<path d="M457.244 250.706C454.158 252.319 451.569 254.885 449.015 257.222C446.382 259.631 443.814 262.111 441.309 264.652C436.295 269.738 431.548 275.081 427.009 280.594C417.904 291.655 409.637 303.376 401.793 315.356C397.384 322.09 393.106 328.909 388.872 335.755C388.059 337.07 390.13 338.291 390.942 336.975C405.787 312.913 421.3 289.043 440.817 268.449C443.566 265.548 446.392 262.72 449.3 259.979C452.184 257.261 455.505 254.792 457.974 251.687C458.388 251.168 457.909 250.359 457.244 250.706Z" fill="#ECBF4C"/>
<path d="M468.173 244.497C466.73 242.402 463.192 242.86 461.003 243.314C455.838 244.385 451.332 247.879 447.645 251.714C444.941 254.528 442.519 257.628 440.377 260.907C438.26 264.146 436.247 267.697 435.348 271.485C435.232 271.975 435.622 272.237 435.995 272.173C436.25 272.395 436.602 272.507 437.02 272.4C442.766 270.918 448.308 268.483 453.38 265.208C455.93 263.562 458.345 261.698 460.622 259.661C462.992 257.541 465.355 255.229 467.022 252.469C468.34 250.286 469.751 246.788 468.173 244.497Z" fill="#ECBF4C"/>
<path d="M431.908 272.65C432.97 269.507 433.927 266.341 434.71 263.147C435.483 259.997 436.099 256.819 436.51 253.653C436.869 250.884 436.993 247.945 435.649 245.757C434.395 243.717 432.135 242.93 429.708 243.86C427.12 244.852 425.159 247.335 423.753 249.875C420.867 255.085 419.998 261.012 420.35 266.482C420.547 269.543 421.125 272.529 422.156 275.242C422.662 276.576 423.278 277.825 424.032 278.98C424.689 279.987 425.404 280.763 426.252 281.491C426.366 281.654 426.518 281.781 426.693 281.856C426.736 281.89 426.777 281.925 426.82 281.959C426.986 282.09 427.167 282.032 427.3 281.895C427.505 281.837 427.716 281.708 427.915 281.485C430.051 279.101 430.915 275.589 431.908 272.65Z" fill="#ECBF4C"/>
<path d="M418.446 286.471C418.427 283.25 418.303 280.041 418.012 276.862C417.725 273.727 417.285 270.614 416.66 267.578C416.113 264.923 415.297 262.185 413.371 260.603C411.575 259.127 409.251 259.12 407.317 260.742C405.256 262.471 404.241 265.371 403.754 268.148C402.754 273.843 403.831 279.559 405.885 284.469C407.034 287.216 408.51 289.774 410.314 291.938C411.201 293.002 412.162 293.954 413.219 294.775C414.14 295.491 415.042 295.978 416.051 296.378C416.207 296.492 416.387 296.56 416.572 296.574C416.622 296.592 416.67 296.611 416.721 296.628C416.915 296.695 417.062 296.585 417.141 296.417C417.311 296.299 417.463 296.114 417.576 295.846C418.783 292.98 418.465 289.483 418.446 286.471Z" fill="#ECBF4C"/>
<path d="M406.349 302.733C405.998 299.531 405.545 296.352 404.928 293.219C404.32 290.13 403.562 287.079 402.627 284.123C401.81 281.538 400.716 278.899 398.638 277.523C396.699 276.24 394.387 276.472 392.631 278.284C390.758 280.216 390.048 283.205 389.849 286.017C389.44 291.785 391.1 297.36 393.648 302.032C395.074 304.646 396.805 307.039 398.823 309.006C399.814 309.973 400.868 310.821 402.004 311.529C402.994 312.146 403.941 312.538 404.987 312.832C405.154 312.929 405.34 312.979 405.525 312.973C405.577 312.986 405.627 312.999 405.679 313.011C405.879 313.058 406.014 312.933 406.076 312.758C406.233 312.623 406.365 312.423 406.45 312.145C407.354 309.173 406.677 305.727 406.349 302.733Z" fill="#ECBF4C"/>
<path d="M394.764 318.7C394.229 315.556 393.591 312.44 392.789 309.378C391.998 306.359 391.058 303.385 389.944 300.514C388.97 298.004 387.711 295.454 385.523 294.204C383.481 293.037 381.145 293.386 379.462 295.267C377.667 297.272 377.113 300.26 377.067 303.048C376.974 308.765 378.971 314.185 381.821 318.666C383.416 321.174 385.308 323.447 387.468 325.285C388.529 326.189 389.647 326.971 390.841 327.612C391.882 328.17 392.866 328.508 393.944 328.744C394.119 328.831 394.311 328.87 394.498 328.856C394.551 328.866 394.603 328.877 394.657 328.886C394.863 328.922 394.993 328.792 395.046 328.615C395.198 328.474 395.321 328.269 395.392 327.99C396.144 325.007 395.264 321.64 394.764 318.7Z" fill="#ECBF4C"/>
<path d="M403.773 325.108C406.943 324.754 410.113 324.506 413.277 324.431C416.397 324.357 419.514 324.439 422.581 324.717C425.263 324.96 428.061 325.465 429.868 327.223C431.554 328.863 431.863 331.205 430.521 333.342C429.09 335.621 426.371 336.979 423.705 337.793C418.236 339.462 412.476 339.039 407.381 337.538C404.53 336.698 401.823 335.507 399.46 333.939C398.298 333.168 397.237 332.31 396.291 331.34C395.467 330.494 394.871 329.641 394.346 328.671C394.214 328.527 394.123 328.353 394.086 328.169C394.062 328.121 394.037 328.074 394.013 328.025C393.921 327.837 394.011 327.676 394.166 327.577C394.26 327.392 394.422 327.217 394.671 327.072C397.33 325.524 400.81 325.439 403.773 325.108Z" fill="#ECBF4C"/>
<path d="M414.876 308.929C418.083 308.544 421.293 308.27 424.5 308.174C427.663 308.08 430.827 308.148 433.944 308.42C436.67 308.658 439.52 309.166 441.394 310.98C443.142 312.672 443.512 315.101 442.201 317.326C440.803 319.698 438.078 321.123 435.392 321.982C429.884 323.744 424.031 323.337 418.828 321.808C415.917 320.952 413.142 319.731 410.708 318.118C409.511 317.325 408.415 316.44 407.432 315.438C406.576 314.565 405.951 313.683 405.396 312.679C405.259 312.53 405.162 312.35 405.12 312.16C405.094 312.11 405.068 312.062 405.043 312.011C404.946 311.817 405.032 311.649 405.187 311.545C405.278 311.352 405.438 311.17 405.687 311.018C408.35 309.396 411.878 309.289 414.876 308.929Z" fill="#ECBF4C"/>
<path d="M466.593 279.088C466.801 276.671 465.534 274.207 462.97 272.594C458.458 269.756 452.24 270.981 447.352 272.054C441.894 273.252 436.633 275.355 431.869 278.276C430.709 278.987 429.56 279.665 428.355 280.29C427.99 280.479 427.591 280.222 427.278 280.615C425.119 283.338 435.874 286.428 437.738 286.955C443.168 288.493 449.149 289.292 454.686 288.09C459.44 287.058 466.098 284.852 466.593 279.088Z" fill="#ECBF4C"/>
<path d="M453.652 301.246C454.331 299.011 453.629 296.419 451.533 294.356C447.844 290.725 441.733 290.565 436.907 290.543C431.519 290.518 426.135 291.388 421.056 293.135C419.82 293.56 418.599 293.957 417.338 294.291C416.956 294.392 416.63 294.065 416.257 294.369C413.676 296.48 423.205 301.669 424.857 302.56C429.673 305.159 435.155 307.177 440.619 307.216C445.31 307.249 452.032 306.577 453.652 301.246Z" fill="#ECBF4C"/>
<path d="M318.423 77.2387L219.559 181.181L288.42 246.679L387.285 142.736L318.423 77.2387Z" fill="#ECBF4C"/>
<path d="M288.414 246.69L298.87 157.647L387.279 142.753L288.414 246.69Z" fill="#E5B340"/>
<path d="M219.555 181.192L305.538 172.052C309.934 171.585 313.343 168.001 313.59 163.587L318.421 77.2549L219.555 181.192Z" fill="#DFA331"/>
<path d="M396.836 339.078H312.837C311.137 339.078 309.759 337.7 309.759 336V198.369C309.759 196.669 311.137 195.291 312.837 195.291H396.836C398.536 195.291 399.914 196.669 399.914 198.369V336C399.914 337.7 398.536 339.078 396.836 339.078Z" fill="#C3B7FC"/>
<path d="M394.321 202.238H315.353V318.678H394.321V202.238Z" fill="#363271"/>
<path opacity="0.08" d="M394.321 318.679H315.353V202.238L394.321 318.679Z" fill="white"/>
<path d="M362.569 328.714C362.569 332.984 359.107 336.446 354.837 336.446C350.567 336.446 347.105 332.984 347.105 328.714C347.105 324.443 350.567 320.982 354.837 320.982C359.107 320.982 362.569 324.443 362.569 328.714Z" fill="#363271"/>
<path d="M384.576 153.866C362.183 153.866 344.03 167.481 344.03 184.276C344.03 193.216 349.174 201.254 357.362 206.818C357.521 209.349 357.894 211.926 357.993 213.145C358.268 216.534 358.787 219.903 359.548 223.218C359.793 224.286 361.208 224.512 361.775 223.574C364.097 219.736 366.638 216.031 369.371 212.473C374.067 213.899 379.199 214.686 384.577 214.686C406.97 214.686 425.123 201.071 425.123 184.276C425.122 167.481 406.969 153.866 384.576 153.866Z" fill="white"/>
<path d="M371.771 183.742C371.771 187.474 368.745 190.5 365.013 190.5C361.281 190.5 358.255 187.474 358.255 183.742C358.255 180.01 361.28 176.984 365.013 176.984C368.746 176.985 371.771 180.01 371.771 183.742Z" fill="#C3B7FC"/>
<path d="M393.112 183.742C393.112 187.474 390.086 190.5 386.354 190.5C382.622 190.5 379.596 187.474 379.596 183.742C379.596 180.01 382.622 176.984 386.354 176.984C390.086 176.985 393.112 180.01 393.112 183.742Z" fill="#C3B7FC"/>
<path d="M414.452 183.742C414.452 187.474 411.427 190.5 407.694 190.5C403.962 190.5 400.936 187.474 400.936 183.742C400.936 180.01 403.962 176.984 407.694 176.984C411.426 176.985 414.452 180.01 414.452 183.742Z" fill="#C3B7FC"/>
<path d="M352.872 274.559C352.392 275.559 351.892 276.559 351.382 277.559C348.742 282.679 342.452 284.679 337.342 282.019L309.512 267.539L309.212 267.379C304.002 264.669 302.082 258.169 304.982 253.049L306.292 250.729L308.332 247.129C308.892 246.139 309.272 245.049 309.412 243.919C309.942 239.709 309.332 230.329 293.632 229.479H216.782C201.972 230.279 200.592 238.669 200.922 243.159C201.042 244.659 201.502 246.109 202.242 247.409L204.242 250.949L205.442 253.049C208.332 258.169 206.412 264.669 201.202 267.379L201.072 267.449L173.072 282.019C167.972 284.679 161.672 282.679 159.042 277.559C158.562 276.629 158.102 275.709 157.652 274.789C152.262 263.679 149.282 252.999 153.842 240.509C156.772 232.529 163.072 226.219 171.012 223.189C201.322 211.619 230.122 208.009 255.212 208.399C280.292 208.009 309.092 211.619 339.402 223.189C347.352 226.219 353.642 232.529 356.572 240.509C361.102 252.909 358.202 263.539 352.872 274.559Z" fill="#DD6E5C"/>
<path d="M201.2 267.382L173.074 282.021C167.969 284.678 161.673 282.68 159.038 277.558C158.561 276.63 158.099 275.708 157.655 274.786L204.247 250.946L205.438 253.048C208.336 258.166 206.415 264.67 201.2 267.382Z" fill="#E08675"/>
<path d="M352.871 274.562C352.393 275.555 351.894 276.554 351.378 277.559C348.743 282.68 342.447 284.678 337.342 282.022L309.216 267.383C304.001 264.671 302.08 258.167 304.978 253.051L306.295 250.729L352.871 274.562Z" fill="#E08675"/>
<path opacity="0.3" d="M316.452 246.369C315.512 250.769 312.612 254.459 310.752 258.559C309.502 261.329 308.832 264.679 309.512 267.539L309.212 267.379C304.002 264.669 302.082 258.169 304.982 253.049L306.292 250.729L308.332 247.129C308.892 246.139 309.272 245.049 309.412 243.919C309.942 239.709 309.332 230.329 293.632 229.479H216.782C201.972 230.279 200.592 238.669 200.922 243.159C201.042 244.659 201.502 246.109 202.242 247.409L204.242 250.949L205.442 253.049C208.332 258.169 206.412 264.669 201.202 267.379L201.072 267.449C201.432 266.749 201.682 265.989 201.802 265.169C202.312 261.879 200.622 258.689 199.062 255.739C195.552 249.079 192.422 241.159 195.382 234.239C197.722 228.779 203.402 225.409 209.162 223.929C214.602 222.529 220.282 222.479 225.902 222.439C243.472 222.299 261.052 222.169 278.622 222.039C287.292 221.979 296.292 221.989 304.132 225.679C311.982 229.369 318.272 237.889 316.452 246.369Z" fill="#C1463D"/>
<path d="M333.703 312.039V335.812C333.703 337.882 332.029 339.556 329.96 339.556H179.908C177.839 339.556 176.164 337.882 176.164 335.812V312.039C176.164 310.749 176.834 309.553 177.931 308.872C209.741 289.144 216.91 234.609 218.211 221.238C218.376 219.542 219.797 218.246 221.499 218.246H229.189C233.081 218.246 236.237 221.402 236.237 225.294V232.068C236.237 234.138 237.911 235.812 239.975 235.812H269.891C271.955 235.812 273.629 234.138 273.629 232.068V225.294C273.629 221.402 276.785 218.246 280.677 218.246H288.368C290.069 218.246 291.491 219.541 291.656 221.238C292.957 234.61 300.126 289.144 331.936 308.872C333.033 309.553 333.703 310.749 333.703 312.039Z" fill="#C64B42"/>
<path d="M254.109 314.306C272.602 314.306 287.593 299.315 287.593 280.822C287.593 262.329 272.602 247.338 254.109 247.338C235.617 247.338 220.625 262.329 220.625 280.822C220.625 299.315 235.617 314.306 254.109 314.306Z" fill="white"/>
<path d="M267.282 280.819C267.282 285.659 264.682 289.879 260.802 292.169C258.842 293.329 256.552 293.999 254.112 293.999C246.832 293.999 240.932 288.099 240.932 280.819C240.932 275.539 244.042 270.979 248.532 268.889C250.222 268.089 252.122 267.649 254.112 267.649C261.382 267.649 267.282 273.549 267.282 280.819Z" fill="#E4E4E4"/>
<path d="M237.643 280.548C237.643 284.034 234.817 286.86 231.33 286.86C227.844 286.86 225.017 284.034 225.017 280.548C225.017 277.062 227.843 274.235 231.33 274.235C234.816 274.235 237.643 277.062 237.643 280.548Z" fill="#E4E4E4"/>
<path d="M283.203 280.548C283.203 284.034 280.377 286.86 276.89 286.86C273.404 286.86 270.577 284.034 270.577 280.548C270.577 277.062 273.403 274.235 276.89 274.235C280.376 274.235 283.203 277.062 283.203 280.548Z" fill="#E4E4E4"/>
<path d="M254.109 297.015C257.595 297.015 260.422 299.841 260.422 303.328C260.422 306.814 257.596 309.641 254.109 309.641C250.623 309.641 247.796 306.815 247.796 303.328C247.797 299.842 250.623 297.015 254.109 297.015Z" fill="#E4E4E4"/>
<path d="M254.109 251.455C257.595 251.455 260.422 254.281 260.422 257.768C260.422 261.254 257.596 264.081 254.109 264.081C250.623 264.081 247.796 261.255 247.796 257.768C247.797 254.282 250.623 251.455 254.109 251.455Z" fill="#E4E4E4"/>
<path d="M265.754 292.192C268.219 289.727 272.216 289.727 274.681 292.192C277.146 294.657 277.146 298.654 274.681 301.119C272.216 303.584 268.219 303.584 265.754 301.119C263.289 298.654 263.289 294.657 265.754 292.192Z" fill="#E4E4E4"/>
<path d="M233.538 259.976C236.003 257.511 240 257.511 242.465 259.976C244.93 262.441 244.93 266.438 242.465 268.903C240 271.368 236.003 271.368 233.538 268.903C231.072 266.438 231.072 262.442 233.538 259.976Z" fill="#E4E4E4"/>
<path d="M265.754 268.903C263.289 266.438 263.289 262.441 265.754 259.976C268.219 257.511 272.216 257.511 274.681 259.976C277.146 262.441 277.146 266.438 274.681 268.903C272.216 271.369 268.22 271.369 265.754 268.903Z" fill="#E4E4E4"/>
<path d="M233.539 301.119C231.074 298.654 231.074 294.657 233.539 292.192C236.004 289.727 240.001 289.727 242.466 292.192C244.931 294.657 244.931 298.654 242.466 301.119C240.001 303.584 236.004 303.584 233.539 301.119Z" fill="#E4E4E4"/>
<path d="M333.703 324.735V335.812C333.703 337.882 332.029 339.556 329.96 339.556H179.908C177.839 339.556 176.164 337.882 176.164 335.812V324.735H333.703Z" fill="#DD6E5C"/>
<path opacity="0.41" d="M260.802 292.169C258.842 293.329 256.552 293.999 254.112 293.999C246.832 293.999 240.932 288.099 240.932 280.819C240.932 275.539 244.042 270.979 248.532 268.889L260.802 292.169Z" fill="white"/>
<path d="M125.151 149.108C139.756 149.108 151.595 157.988 151.595 168.941C151.595 174.771 148.24 180.014 142.9 183.643C142.796 185.294 142.553 186.975 142.489 187.769C142.31 189.979 141.971 192.177 141.475 194.339C141.315 195.035 140.393 195.183 140.023 194.571C138.509 192.068 136.851 189.651 135.069 187.331C132.006 188.261 128.659 188.774 125.152 188.774C110.547 188.774 98.7075 179.894 98.7075 168.941C98.7065 157.987 110.546 149.108 125.151 149.108Z" fill="white"/>
<path d="M133.501 168.593C133.501 171.027 135.474 173 137.908 173C140.342 173 142.315 171.027 142.315 168.593C142.315 166.159 140.342 164.185 137.908 164.185C135.474 164.186 133.501 166.159 133.501 168.593Z" fill="#C3B7FC"/>
<path d="M119.583 168.593C119.583 171.027 121.556 173 123.99 173C126.424 173 128.398 171.027 128.398 168.593C128.398 166.159 126.425 164.185 123.99 164.185C121.556 164.186 119.583 166.159 119.583 168.593Z" fill="#C3B7FC"/>
<path d="M105.666 168.593C105.666 171.027 107.639 173 110.073 173C112.507 173 114.48 171.027 114.48 168.593C114.48 166.159 112.507 164.185 110.073 164.185C107.639 164.185 105.666 166.159 105.666 168.593Z" fill="#C3B7FC"/>
<path d="M25.7458 242.458C29.2058 244.266 32.1088 247.143 34.9718 249.763C37.9238 252.464 40.8027 255.245 43.6117 258.094C49.2337 263.796 54.5558 269.787 59.6448 275.969C69.8538 288.37 79.1227 301.513 87.9177 314.944C92.8617 322.495 97.6577 330.14 102.405 337.816C103.317 339.291 100.995 340.66 100.084 339.184C83.4397 312.205 66.0458 285.442 44.1638 262.352C41.0818 259.099 37.9128 255.929 34.6518 252.855C31.4188 249.808 27.6948 247.039 24.9268 243.558C24.4628 242.975 24.9998 242.068 25.7458 242.458Z" fill="#E08675"/>
<path d="M13.4895 235.496C15.1075 233.147 19.0745 233.661 21.5295 234.17C27.3215 235.371 32.3725 239.288 36.5065 243.588C39.5385 246.743 42.2535 250.219 44.6555 253.895C47.0295 257.526 49.2855 261.508 50.2935 265.755C50.4235 266.304 49.9865 266.598 49.5685 266.526C49.2825 266.775 48.8885 266.901 48.4195 266.78C41.9765 265.118 35.7635 262.388 30.0765 258.716C27.2175 256.87 24.5095 254.781 21.9565 252.496C19.2995 250.119 16.6505 247.527 14.7805 244.432C13.3035 241.986 11.7215 238.064 13.4895 235.496Z" fill="#E08675"/>
<path d="M54.1526 267.061C52.9616 263.537 51.8886 259.987 51.0106 256.407C50.1436 252.876 49.4526 249.312 48.9926 245.762C48.5906 242.658 48.4516 239.362 49.9586 236.909C51.3646 234.621 53.8986 233.74 56.6196 234.782C59.5216 235.894 61.7196 238.678 63.2966 241.526C66.5326 247.367 67.5066 254.013 67.1126 260.146C66.8916 263.578 66.2436 266.926 65.0886 269.968C64.5206 271.463 63.8296 272.864 62.9846 274.159C62.2476 275.288 61.4466 276.158 60.4956 276.975C60.3676 277.158 60.1966 277.301 60.0016 277.385C59.9536 277.423 59.9076 277.462 59.8596 277.5C59.6726 277.646 59.4706 277.582 59.3206 277.428C59.0906 277.363 58.8546 277.218 58.6306 276.968C56.2346 274.294 55.2656 270.356 54.1526 267.061Z" fill="#E08675"/>
<path d="M69.2454 282.557C69.2674 278.945 69.4054 275.348 69.7324 271.783C70.0544 268.267 70.5474 264.778 71.2484 261.373C71.8614 258.396 72.7764 255.327 74.9354 253.552C76.9494 251.897 79.5554 251.89 81.7234 253.708C84.0354 255.647 85.1714 258.898 85.7184 262.011C86.8404 268.397 85.6324 274.806 83.3294 280.31C82.0414 283.39 80.3864 286.258 78.3634 288.685C77.3694 289.878 76.2914 290.945 75.1064 291.866C74.0734 292.669 73.0624 293.215 71.9304 293.663C71.7554 293.79 71.5534 293.867 71.3474 293.882C71.2914 293.902 71.2364 293.923 71.1804 293.943C70.9624 294.019 70.7974 293.895 70.7094 293.706C70.5184 293.574 70.3484 293.366 70.2214 293.065C68.8674 289.855 69.2254 285.934 69.2454 282.557Z" fill="#E08675"/>
<path d="M82.8087 300.79C83.2027 297.199 83.7107 293.636 84.4017 290.123C85.0837 286.659 85.9337 283.239 86.9807 279.924C87.8967 277.026 89.1237 274.067 91.4537 272.525C93.6277 271.086 96.2207 271.347 98.1897 273.379C100.29 275.546 101.086 278.896 101.309 282.05C101.767 288.517 99.9057 294.768 97.0487 300.006C95.4497 302.937 93.5087 305.619 91.2467 307.825C90.1347 308.909 88.9537 309.86 87.6797 310.654C86.5697 311.346 85.5067 311.785 84.3357 312.115C84.1487 312.224 83.9397 312.279 83.7327 312.273C83.6747 312.287 83.6187 312.303 83.5597 312.316C83.3357 312.369 83.1837 312.229 83.1147 312.032C82.9387 311.881 82.7907 311.656 82.6947 311.344C81.6817 308.011 82.4407 304.148 82.8087 300.79Z" fill="#E08675"/>
<path d="M95.7986 318.692C96.3986 315.167 97.1136 311.674 98.0126 308.241C98.8986 304.856 99.9526 301.522 101.203 298.303C102.295 295.489 103.706 292.63 106.16 291.227C108.449 289.918 111.069 290.31 112.956 292.419C114.968 294.667 115.59 298.018 115.641 301.143C115.746 307.553 113.506 313.63 110.311 318.655C108.523 321.467 106.401 324.015 103.98 326.076C102.79 327.089 101.536 327.967 100.198 328.685C99.0306 329.311 97.9276 329.69 96.7186 329.954C96.5226 330.052 96.3066 330.096 96.0976 330.079C96.0376 330.09 95.9796 330.102 95.9196 330.113C95.6886 330.153 95.5426 330.007 95.4836 329.81C95.3136 329.651 95.1746 329.422 95.0956 329.109C94.2516 325.765 95.2376 321.989 95.7986 318.692Z" fill="#E08675"/>
<path d="M85.6977 325.878C82.1437 325.481 78.5887 325.203 75.0417 325.119C71.5437 325.036 68.0477 325.128 64.6097 325.44C61.6027 325.713 58.4657 326.279 56.4397 328.25C54.5497 330.088 54.2027 332.714 55.7077 335.11C57.3127 337.665 60.3607 339.188 63.3507 340.101C69.4827 341.972 75.9407 341.498 81.6537 339.816C84.8507 338.874 87.8857 337.539 90.5357 335.781C91.8377 334.917 93.0277 333.955 94.0877 332.867C95.0117 331.919 95.6807 330.963 96.2687 329.874C96.4167 329.712 96.5187 329.517 96.5607 329.311C96.5877 329.257 96.6157 329.204 96.6417 329.149C96.7447 328.938 96.6437 328.758 96.4707 328.646C96.3657 328.439 96.1837 328.242 95.9047 328.08C92.9217 326.344 89.0207 326.249 85.6977 325.878Z" fill="#E08675"/>
<path d="M73.2476 307.737C69.6516 307.306 66.0526 306.998 62.4566 306.891C58.9096 306.785 55.3626 306.861 51.8676 307.166C48.8116 307.432 45.6156 308.003 43.5146 310.037C41.5546 311.934 41.1396 314.657 42.6096 317.152C44.1766 319.812 47.2326 321.41 50.2436 322.373C56.4186 324.349 62.9816 323.892 68.8156 322.177C72.0796 321.218 75.1906 319.849 77.9196 318.039C79.2606 317.15 80.4906 316.158 81.5916 315.035C82.5516 314.056 83.2516 313.068 83.8746 311.941C84.0286 311.774 84.1366 311.572 84.1836 311.359C84.2126 311.303 84.2416 311.249 84.2706 311.192C84.3796 310.974 84.2826 310.786 84.1086 310.67C84.0066 310.454 83.8266 310.249 83.5476 310.079C80.5646 308.26 76.6096 308.14 73.2476 307.737Z" fill="#E08675"/>
<path d="M15.2635 274.279C15.0305 271.569 16.4505 268.806 19.3255 266.998C24.3835 263.816 31.3555 265.189 36.8365 266.393C42.9555 267.737 48.8545 270.094 54.1965 273.37C55.4965 274.167 56.7865 274.927 58.1365 275.628C58.5455 275.84 58.9935 275.552 59.3445 275.992C61.7645 279.045 49.7055 282.509 47.6175 283.101C41.5285 284.825 34.8235 285.721 28.6145 284.374C23.2825 283.216 15.8185 280.742 15.2635 274.279Z" fill="#E08675"/>
<path d="M29.7735 299.123C29.0115 296.617 29.7995 293.712 32.1495 291.398C36.2855 287.327 43.1375 287.148 48.5485 287.123C54.5895 287.096 60.6265 288.071 66.3205 290.029C67.7065 290.506 69.0745 290.95 70.4895 291.325C70.9175 291.438 71.2825 291.072 71.7015 291.413C74.5955 293.78 63.9115 299.597 62.0585 300.597C56.6595 303.511 50.5125 305.774 44.3855 305.817C39.1255 305.854 31.5895 305.101 29.7735 299.123Z" fill="#E08675"/>
<path d="M72.1992 179.161C74.7682 181.645 76.5712 184.923 78.4062 187.966C80.2982 191.102 82.1052 194.29 83.8322 197.519C87.2902 203.982 90.4102 210.621 93.2752 217.367C99.0232 230.9 103.755 244.841 107.995 258.913C110.378 266.823 112.608 274.779 114.786 282.748C115.205 284.28 112.811 284.879 112.394 283.347C104.774 255.347 96.4402 227.343 83.2132 201.4C81.3502 197.746 79.3902 194.141 77.3242 190.597C75.2752 187.084 72.7242 183.688 71.1952 179.915C70.9392 179.283 71.6452 178.626 72.1992 179.161Z" fill="#DFA331"/>
<path d="M63.2444 169.873C65.2734 168.23 68.6234 169.709 70.6464 170.792C75.4194 173.348 78.8394 178.095 81.3544 182.942C83.1984 186.497 84.6814 190.253 85.8374 194.103C86.9804 197.906 87.9284 201.987 87.7134 205.977C87.6854 206.493 87.2254 206.637 86.8774 206.466C86.5624 206.611 86.1824 206.619 85.8024 206.391C80.5764 203.262 75.8294 199.255 71.7884 194.557C69.7564 192.195 67.9214 189.659 66.2714 186.992C64.5544 184.216 62.9004 181.254 62.0614 178.053C61.3984 175.522 61.0264 171.669 63.2444 169.873Z" fill="#DFA331"/>
<path d="M90.7623 208.124C90.6303 204.721 90.6083 201.327 90.7653 197.956C90.9203 194.631 91.2363 191.323 91.7523 188.087C92.2033 185.257 92.9363 182.328 94.8943 180.565C96.7213 178.921 99.1753 178.804 101.294 180.424C103.553 182.152 104.761 185.166 105.408 188.076C106.735 194.043 105.868 200.13 103.932 205.412C102.849 208.368 101.411 211.139 99.6093 213.51C98.7233 214.675 97.7533 215.726 96.6763 216.644C95.7373 217.444 94.8083 218.001 93.7613 218.471C93.6013 218.598 93.4143 218.679 93.2213 218.703C93.1693 218.724 93.1193 218.746 93.0663 218.767C92.8643 218.847 92.7043 218.738 92.6123 218.564C92.4273 218.448 92.2573 218.259 92.1253 217.981C90.7153 215.013 90.8853 211.305 90.7623 208.124Z" fill="#DFA331"/>
<path d="M99.9963 225.64C100.951 222.475 102.005 219.352 103.216 216.307C104.41 213.304 105.747 210.368 107.245 207.561C108.555 205.106 110.154 202.649 112.509 201.651C114.706 200.72 116.996 201.389 118.428 203.547C119.955 205.848 120.11 208.997 119.784 211.872C119.114 217.769 116.392 223.082 112.944 227.318C111.014 229.688 108.818 231.777 106.413 233.384C105.231 234.174 104.009 234.831 102.729 235.333C101.614 235.77 100.585 235.987 99.4753 236.087C99.2883 236.153 99.0913 236.169 98.9063 236.129C98.8523 236.132 98.7993 236.136 98.7443 236.139C98.5333 236.149 98.4213 235.997 98.3923 235.809C98.2593 235.644 98.1633 235.417 98.1303 235.12C97.7733 231.95 99.1033 228.6 99.9963 225.64Z" fill="#DFA331"/>
<path d="M107.178 245.163C108.454 242.113 109.824 239.116 111.342 236.211C112.839 233.347 114.471 230.564 116.25 227.926C117.805 225.619 119.649 223.339 122.095 222.589C124.376 221.889 126.585 222.79 127.787 225.084C129.069 227.53 128.899 230.679 128.278 233.505C127.004 239.302 123.75 244.307 119.884 248.165C117.721 250.324 115.321 252.176 112.764 253.526C111.507 254.19 110.223 254.718 108.899 255.085C107.745 255.405 106.699 255.515 105.584 255.501C105.391 255.548 105.193 255.543 105.014 255.484C104.959 255.481 104.906 255.48 104.851 255.477C104.64 255.465 104.544 255.303 104.534 255.112C104.419 254.934 104.346 254.698 104.344 254.4C104.317 251.21 105.985 248.015 107.178 245.163Z" fill="#DFA331"/>
<path d="M113.944 264.247C115.385 261.307 116.918 258.426 118.597 255.645C120.253 252.903 122.041 250.249 123.972 247.747C125.661 245.559 127.641 243.415 130.159 242.82C132.508 242.264 134.706 243.287 135.816 245.627C137 248.122 136.677 251.225 135.911 253.982C134.341 259.637 130.801 264.391 126.694 267.975C124.396 269.98 121.871 271.667 119.211 272.849C117.904 273.43 116.577 273.876 115.215 274.16C114.029 274.407 112.962 274.453 111.832 274.373C111.634 274.408 111.433 274.391 111.253 274.322C111.198 274.316 111.145 274.312 111.089 274.305C110.876 274.281 110.786 274.115 110.785 273.926C110.676 273.743 110.613 273.506 110.625 273.21C110.751 270.054 112.597 266.995 113.944 264.247Z" fill="#DFA331"/>
<path d="M103.212 267.937C100.195 266.667 97.1463 265.502 94.0533 264.509C91.0033 263.529 87.9113 262.704 84.8113 262.087C82.1013 261.547 79.2003 261.231 76.9103 262.436C74.7743 263.56 73.7893 265.776 74.4893 268.269C75.2363 270.928 77.5173 273.055 79.9053 274.631C84.8033 277.863 90.5963 279.121 96.0483 279.124C99.0983 279.126 102.109 278.74 104.891 277.884C106.258 277.463 107.552 276.927 108.765 276.246C109.822 275.653 110.657 274.987 111.456 274.184C111.628 274.08 111.768 273.936 111.858 273.766C111.896 273.725 111.934 273.687 111.971 273.645C112.116 273.487 112.075 273.302 111.951 273.159C111.913 272.949 111.803 272.73 111.601 272.515C109.434 270.218 106.033 269.124 103.212 267.937Z" fill="#DFA331"/>
<path d="M96.9845 248.784C93.9395 247.473 90.8595 246.271 87.7305 245.244C84.6445 244.232 81.5095 243.379 78.3625 242.741C75.6105 242.183 72.6575 241.855 70.2845 243.096C68.0715 244.254 67.0025 246.537 67.6465 249.108C68.3335 251.85 70.6015 254.044 72.9955 255.67C77.9055 259.005 83.7845 260.305 89.3505 260.312C92.4655 260.316 95.5505 259.92 98.4155 259.039C99.8235 258.606 101.16 258.054 102.418 257.353C103.514 256.742 104.386 256.056 105.224 255.229C105.403 255.122 105.55 254.973 105.647 254.798C105.687 254.756 105.726 254.716 105.766 254.674C105.918 254.511 105.882 254.321 105.759 254.173C105.726 253.957 105.621 253.731 105.42 253.509C103.272 251.14 99.8315 250.009 96.9845 248.784Z" fill="#DFA331"/>
<path d="M54.7493 204.381C55.2473 201.941 57.2093 199.884 60.2023 199.041C65.4683 197.558 71.2333 200.571 75.7323 203.048C80.7563 205.814 85.3243 209.412 89.1653 213.672C90.1003 214.709 91.0353 215.71 92.0393 216.675C92.3433 216.967 92.8113 216.83 93.0053 217.308C94.3393 220.616 82.8543 220.532 80.8673 220.51C75.0753 220.446 68.9563 219.494 63.8543 216.702C59.4733 214.306 53.5613 210.2 54.7493 204.381Z" fill="#DFA331"/>
<path d="M61.0485 229.954C61.0295 227.556 62.4735 225.21 65.1365 223.788C69.8225 221.286 75.8845 222.904 80.6415 224.285C85.9525 225.827 90.9995 228.247 95.4915 231.443C96.5845 232.221 97.6705 232.965 98.8155 233.661C99.1625 233.872 99.5775 233.644 99.8575 234.052C101.785 236.88 90.8965 239.218 89.0115 239.616C83.5165 240.775 77.5325 241.169 72.1435 239.618C67.5155 238.287 61.0945 235.672 61.0485 229.954Z" fill="#DFA331"/>
<path d="M370.26 336.005C369.12 337.669 367.425 338.855 365.7 339.887C359.06 343.893 351.788 346.527 344.269 348.099C343.622 348.253 342.96 348.392 342.297 348.5C339.986 348.946 337.644 349.285 335.302 349.532C334.732 349.609 334.146 349.655 333.576 349.701C332.251 349.824 330.941 349.932 329.617 349.994C329.093 350.025 328.584 350.041 328.076 350.056C325.611 350.149 323.146 350.164 320.696 350.102C320.264 350.102 319.848 350.087 319.433 350.072C319.325 350.072 319.232 350.072 319.125 350.056C317.846 350.025 316.552 349.963 315.227 349.871C314.626 349.856 314.025 349.81 313.409 349.764C311.498 349.626 309.557 349.456 307.601 349.225C306.153 349.056 304.689 348.84 303.241 348.594C302.008 348.409 300.776 348.177 299.559 347.9C289.484 345.789 279.901 341.707 273.538 333.818C272.275 332.262 271.119 329.828 271.196 328.025C271.211 327.424 271.381 326.885 271.735 326.485C272.289 325.822 273.337 325.499 275.047 325.745C282.766 326.885 290.022 330.767 297.001 334.048C297.91 334.464 298.727 333.324 298.018 332.616C291.147 325.683 285.185 317.98 283.367 308.397C283.228 307.688 283.136 306.918 283.259 306.209C283.352 305.654 283.583 305.131 284.06 304.684C284.152 304.622 284.245 304.545 284.337 304.468C284.999 303.975 285.831 303.79 286.648 303.867C288.374 304.006 289.76 305.084 291.039 306.193C296.832 311.232 301.561 318.195 306.06 324.758C306.707 325.698 308.186 325.066 307.924 323.957C306.368 316.901 304.95 309.321 304.288 302.45C303.918 298.629 303.903 294.393 306.306 291.404C306.414 291.266 306.537 291.127 306.66 291.019C306.876 290.819 307.122 290.649 307.4 290.603C307.662 290.556 307.924 290.603 308.17 290.711C308.478 290.85 308.771 291.065 309.033 291.281C312.438 294.208 314.533 298.645 315.842 302.943C317.676 308.983 320.187 315.977 321.558 322.555C321.65 323.002 322.328 322.94 322.328 322.478C322.544 312.202 324.377 301.51 329.723 292.944C330.432 291.819 331.618 291.049 332.943 290.987C333.205 290.971 333.451 290.987 333.683 291.033C334.253 291.126 334.731 291.356 335.131 291.711C336.58 292.913 337.041 295.455 337.057 297.535C337.134 305.531 336.472 315.668 335.1 324.234C334.962 325.097 336.117 325.482 336.533 324.727C340.647 317.009 345.638 308.288 352.602 304.237C354.559 303.097 356.977 302.157 358.995 303.79C359.242 303.99 359.457 304.221 359.642 304.468C360.012 304.93 360.274 305.469 360.428 306.04C360.443 306.055 360.459 306.086 360.459 306.102C361.106 308.475 360.274 310.77 359.349 312.927C356.021 320.661 351.322 327.81 345.545 333.926C344.821 334.681 345.699 335.867 346.623 335.406C350.629 333.48 354.511 331.615 358.671 329.598C360.72 328.596 362.846 327.58 365.126 327.44C367.314 327.302 369.702 328.165 370.78 330.029C370.841 330.122 370.888 330.198 370.934 330.291C371.104 330.645 371.243 331.031 371.304 331.416C371.632 332.971 371.154 334.666 370.26 336.005Z" fill="#ECBF4C"/>
<path d="M320.697 350.102C320.265 350.102 319.849 350.087 319.434 350.072C319.326 350.072 319.233 350.072 319.126 350.056C315.49 330.274 311.346 310.585 306.662 291.019C306.878 290.819 307.124 290.649 307.402 290.603C307.664 290.556 307.926 290.603 308.172 290.711C312.886 310.4 317.061 330.197 320.697 350.102Z" fill="#E58F31"/>
<path d="M335.132 291.712C332.929 302.727 331.389 313.635 330.834 324.913C330.433 333.278 330.017 341.644 329.617 349.994C329.093 350.025 328.584 350.041 328.076 350.056C328.492 341.182 328.923 332.308 329.37 323.449C329.925 312.433 331.527 301.772 333.684 291.034C334.254 291.127 334.732 291.358 335.132 291.712Z" fill="#E58F31"/>
<path d="M360.43 306.04C354.991 313.897 349.445 321.708 344.484 329.873C340.679 336.144 337.797 342.753 335.302 349.532C334.732 349.609 334.146 349.655 333.576 349.701C335.995 343.03 338.768 336.513 342.419 330.335C347.688 321.43 353.758 312.987 359.643 304.468C360.014 304.931 360.276 305.47 360.43 306.04Z" fill="#E58F31"/>
<path d="M315.228 349.871C314.627 349.856 314.026 349.81 313.41 349.764C304.844 334.327 293.474 320.63 283.259 306.21C283.352 305.655 283.583 305.132 284.06 304.685C294.613 319.644 306.461 333.787 315.228 349.871Z" fill="#E58F31"/>
<path d="M303.241 348.593C302.008 348.408 300.776 348.176 299.559 347.899C290.038 341.382 280.271 335.219 271.196 328.025C271.211 327.424 271.381 326.885 271.735 326.485C281.78 334.526 292.703 341.259 303.241 348.593Z" fill="#E58F31"/>
<path d="M371.307 331.414C369.027 332.431 366.67 333.356 364.575 334.465C360.708 336.499 356.949 338.733 353.313 341.136C350.155 343.216 346.904 345.358 344.269 348.1C343.622 348.254 342.96 348.393 342.297 348.501C344.5 345.882 347.073 343.54 350.231 341.352C354.206 338.609 358.319 336.083 362.572 333.787C365.129 332.4 368.041 331.307 370.784 330.028C370.845 330.121 370.892 330.197 370.938 330.29C371.107 330.644 371.245 331.029 371.307 331.414Z" fill="#E58F31"/>
<path d="M201.971 307.885C201.747 308.152 201.385 308.26 201.044 308.35C197.392 309.303 193.641 309.704 189.864 309.872C188.489 309.937 187.109 309.967 185.734 309.98C184.441 309.997 183.147 310.001 181.858 310.001C174.412 310.001 166.971 309.988 159.525 309.962C158.43 309.958 157.331 309.953 156.236 309.949C155.533 309.949 154.835 309.944 154.132 309.94C149.734 309.923 145.306 309.893 140.991 309.048C140.706 308.992 142.358 292.152 142.513 290.5C143.134 283.856 143.962 277.216 145.445 270.706C146.613 265.584 148.17 260.022 150.675 255.103C153.408 249.735 157.267 245.131 162.98 242.699C163.191 242.608 163.407 242.522 163.622 242.436C168.222 240.647 173.28 239.918 178.151 240.703C179.669 240.949 181.079 241.332 182.393 241.837C191.65 245.386 196.064 254.927 198.186 264.645C201.2 278.42 201.752 292.613 202.234 306.647C202.251 307.078 202.251 307.552 201.971 307.885Z" fill="#F0C9A1"/>
<path d="M151.964 228.6C150.113 225.9 149.659 222.594 149.196 219.445C147.702 209.294 151.955 198.076 162.721 194.183C168.588 192.062 175.412 191.638 181.271 194.001C192.487 198.525 194.687 209.819 194.086 220.111C193.815 224.748 192.159 229.228 188.87 232.83C186.27 235.678 183.216 237.802 179.16 238.45C169.196 240.042 158.894 238.707 151.964 228.6Z" fill="#363271"/>
<path d="M179.517 225.218V243.973C179.517 247.663 176.525 250.656 172.834 250.656C169.143 250.656 166.151 247.664 166.151 243.973V225.218H179.517Z" fill="#F0C9A1"/>
<path d="M179.517 228.77V241.708C176.672 242.57 173.748 243.191 170.787 243.131C169.261 243.101 167.661 242.881 166.152 242.42V230.9C166.911 230.538 167.708 230.249 168.502 230.008C172.054 228.925 175.809 228.503 179.517 228.77Z" fill="#E9B588"/>
<path d="M154.818 218.966C154.818 230.991 161.201 240.739 171.201 240.739C181.202 240.739 189.309 230.991 189.309 218.966C189.309 206.941 181.202 197.193 171.201 197.193C161.201 197.194 154.818 206.942 154.818 218.966Z" fill="#F0C9A1"/>
<path d="M184.708 220.999C183.879 224.473 185.46 227.827 188.239 228.49C191.018 229.153 193.944 226.875 194.772 223.4C195.601 219.926 194.02 216.572 191.241 215.909C188.462 215.246 185.537 217.525 184.708 220.999Z" fill="#F0C9A1"/>
<path d="M149.786 223.4C148.957 219.926 150.538 216.572 153.317 215.909C156.096 215.246 159.021 217.525 159.85 220.999C160.679 224.473 159.098 227.827 156.319 228.49C153.54 229.153 150.615 226.875 149.786 223.4Z" fill="#F0C9A1"/>
<path d="M179.655 214.362C176.697 214.362 174.214 216.405 173.523 219.151H170.049C169.359 216.404 166.875 214.362 163.917 214.362C160.427 214.362 157.588 217.201 157.588 220.691C157.588 224.181 160.427 227.02 163.917 227.02C167.407 227.02 170.246 224.181 170.246 220.691C170.246 220.633 170.239 220.577 170.237 220.52H173.333C173.332 220.577 173.324 220.633 173.324 220.691C173.324 224.181 176.163 227.02 179.653 227.02C183.143 227.02 185.982 224.181 185.982 220.691C185.984 217.201 183.145 214.362 179.655 214.362ZM163.918 225.651C161.183 225.651 158.957 223.426 158.957 220.69C158.957 217.955 161.182 215.729 163.918 215.729C166.653 215.729 168.879 217.954 168.879 220.69C168.878 223.426 166.653 225.651 163.918 225.651ZM179.655 225.651C176.92 225.651 174.694 223.426 174.694 220.69C174.694 217.955 176.919 215.729 179.655 215.729C182.39 215.729 184.616 217.954 184.616 220.69C184.616 223.426 182.39 225.651 179.655 225.651Z" fill="white"/>
<path d="M156.46 214.901C163.602 213.309 168.534 206.607 170.99 199.715C174.589 205.713 179.973 210.624 186.276 213.657C187.624 214.306 189.536 214.734 190.37 213.492C190.675 213.038 190.734 212.466 190.756 211.919C191.014 205.548 187.067 199.209 181.235 196.629C179.703 195.951 178.07 195.517 176.418 195.238C170.681 194.268 164.486 195.258 159.763 198.656C156.69 200.866 154.349 204.146 153.329 207.797C152.444 210.964 151.561 215.993 156.46 214.901Z" fill="#363271"/>
<path d="M156.125 195.475C157.346 198.117 160.332 199.881 163.218 199.507C165.568 199.203 167.672 197.635 170.042 197.642C172.21 197.649 174.14 198.969 176.247 199.482C179.473 200.267 183.11 198.942 185.076 196.267C187.042 193.592 187.22 189.725 185.508 186.881C183.796 184.037 180.295 182.384 177.011 182.869C174.113 183.297 171.696 184.705 168.68 184.59C166.704 184.515 164.748 183.769 162.768 184.09C157.652 184.917 153.852 190.557 156.125 195.475Z" fill="#363271"/>
<path d="M189.864 251.948V309.872C188.489 309.937 187.109 309.967 185.734 309.98C184.441 309.997 183.147 310.001 181.858 310.001C174.412 310.001 166.971 309.988 159.525 309.962C158.43 309.958 157.331 309.953 156.236 309.949V251.948H189.864Z" fill="white"/>
<path opacity="0.37" d="M188.791 277.669C180.011 281.209 170.271 281.219 160.801 281.109C161.301 270.799 161.841 260.499 162.431 250.189C162.681 250.589 162.941 251.069 163.231 251.649C165.571 256.349 168.501 260.529 172.181 264.289C177.171 269.369 182.991 273.529 188.791 277.669Z" fill="#E4E4E4"/>
<path d="M162.981 242.699C163.031 244.059 162.671 245.749 162.611 246.909C162.551 247.999 162.481 249.099 162.431 250.189C161.841 260.499 161.301 270.799 160.801 281.109C160.641 284.389 160.491 287.659 160.341 290.939C160.051 297.269 159.781 303.619 159.521 309.959C157.731 309.959 155.931 309.949 154.131 309.939C149.731 309.919 145.301 309.889 140.991 309.049C140.701 308.989 142.361 292.149 142.511 290.499C143.131 283.859 143.961 277.219 145.441 270.709C146.611 265.589 148.171 260.019 150.671 255.109C153.411 249.739 157.261 245.129 162.981 242.699Z" fill="#514E92"/>
<path d="M201.972 307.885C201.748 308.152 201.386 308.26 201.045 308.35C196.061 309.652 190.896 309.924 185.735 309.98C185.481 303.629 185.209 297.283 184.92 290.937C184.252 276.256 183.497 261.585 182.652 246.913C182.57 245.486 182.048 243.266 182.393 241.838C191.65 245.387 196.064 254.928 198.186 264.646C201.2 278.421 201.752 292.614 202.234 306.648C202.252 307.078 202.252 307.552 201.972 307.885Z" fill="#514E92"/>
<path d="M184.705 234.322L183.63 232.993C187.889 229.399 190.332 224.129 190.332 218.534V214.745C190.332 205.78 183.19 198.487 174.412 198.487H169.008C160.281 198.487 153.181 205.738 153.181 214.65V218.534H151.492V214.65C151.492 204.787 159.349 196.762 169.007 196.762H174.411C184.12 196.762 192.019 204.829 192.019 214.745V218.534C192.02 224.645 189.354 230.4 184.705 234.322Z" fill="white"/>
<path d="M153.886 228.667H151.255C149.963 228.667 148.906 227.61 148.906 226.318V215.064C148.906 213.772 149.963 212.715 151.255 212.715H153.886C155.178 212.715 156.235 213.772 156.235 215.064V226.317C156.235 227.61 155.178 228.667 153.886 228.667Z" fill="#DFA331"/>
<path d="M193.12 228.667H190.489C189.197 228.667 188.14 227.61 188.14 226.318V215.064C188.14 213.772 189.197 212.715 190.489 212.715H193.12C194.412 212.715 195.469 213.772 195.469 215.064V226.317C195.469 227.61 194.412 228.667 193.12 228.667Z" fill="#DFA331"/>
<path d="M185.958 233.371C185.958 234.479 185.178 235.479 184.048 235.703L181.509 236.203C180.228 236.453 178.978 235.612 178.724 234.336C178.694 234.185 178.681 234.03 178.681 233.879C178.681 233.495 178.771 233.129 178.944 232.801C179.259 232.176 179.849 231.693 180.591 231.546L183.13 231.046C184.152 230.848 185.152 231.339 185.644 232.197C185.773 232.413 185.864 232.654 185.916 232.913C185.945 233.064 185.958 233.22 185.958 233.371Z" fill="#DFA331"/>
<path opacity="0.41" d="M185.643 232.198C185.324 232.823 184.733 233.302 183.996 233.448L181.457 233.948C180.435 234.151 179.431 233.659 178.943 232.801C179.258 232.176 179.848 231.693 180.59 231.546L183.129 231.046C184.152 230.848 185.152 231.34 185.643 232.198Z" fill="#ECBF4C"/>
<path d="M149.077 226.08H148.303C147.923 226.08 147.612 225.769 147.612 225.389V215.561C147.612 215.181 147.923 214.87 148.303 214.87H149.077C149.457 214.87 149.768 215.181 149.768 215.561V225.389C149.768 225.769 149.457 226.08 149.077 226.08Z" fill="#ECBF4C"/>
<path d="M195.64 226.08H194.866C194.486 226.08 194.175 225.769 194.175 225.389V215.561C194.175 215.181 194.486 214.87 194.866 214.87H195.64C196.02 214.87 196.331 215.181 196.331 215.561V225.389C196.331 225.769 196.02 226.08 195.64 226.08Z" fill="#ECBF4C"/>
<path d="M144.341 217.039V261.649C144.341 262.029 144.241 262.379 144.061 262.679C143.711 263.289 143.041 263.699 142.281 263.699H78.6813C77.5513 263.699 76.6313 262.779 76.6313 261.649V217.039C76.6313 215.899 77.5513 214.979 78.6813 214.979H142.281C143.421 214.979 144.341 215.899 144.341 217.039Z" fill="#5F5EA5"/>
<path opacity="0.06" d="M144.061 262.679C143.711 263.289 143.041 263.699 142.281 263.699H78.6813C77.5513 263.699 76.6313 262.779 76.6313 261.649V217.039C76.6313 215.899 77.5513 214.979 78.6813 214.979H82.6213C82.9013 215.959 83.1513 216.909 83.4713 217.649C86.1613 224.089 90.3713 229.829 95.3213 234.719C101.941 241.279 109.861 246.389 117.981 250.959C126.291 255.639 134.961 259.849 144.061 262.679Z" fill="white"/>
<path d="M121.093 242.022H119.481H101.488H99.8761L95.8481 272.413H101.488H119.481H125.121L121.093 242.022Z" fill="#514E92"/>
<path d="M116.071 254.312C116.071 257.397 113.57 259.899 110.484 259.899C107.398 259.899 104.897 257.398 104.897 254.312C104.897 251.227 107.398 248.726 110.484 248.726C113.57 248.726 116.071 251.227 116.071 254.312Z" fill="#5F5EA5"/>
<path d="M215.951 278.899L215.441 284.059L215.121 287.219L212.031 318.319L211.501 323.609L210.841 330.339L209.791 340.919L209.061 348.279L208.811 350.769H91.3314L90.3414 340.919L89.3014 330.339L88.6314 323.609L88.1014 318.319L85.0214 287.219L84.7014 284.059L84.1914 278.899H215.951Z" fill="#C3B7FC"/>
<path d="M215.947 278.901L215.121 287.219H85.0213L84.1943 278.901H215.947Z" fill="#A797FB"/>
<path d="M210.841 330.34L209.792 340.919H90.3454L89.2974 330.34H210.841Z" fill="#5F5EA5"/>
<path d="M212.033 318.318L211.504 323.608H88.6335L88.1045 318.318H212.033Z" fill="white"/>
<path opacity="0.11" d="M209.061 348.279L208.811 350.769H91.3314L90.3414 340.919L89.3014 330.339L88.6314 323.609L88.1014 318.319L85.0214 287.219L84.7014 284.059L84.1914 278.899H102.561C102.731 279.019 102.911 279.149 103.081 279.289C111.491 285.989 118.341 295.539 126.701 302.619C144.211 317.439 163.901 329.679 184.931 338.829C190.761 341.369 196.691 343.669 202.711 345.719C204.191 346.229 206.521 347.259 209.061 348.279Z" fill="#5F5EA5"/>
<path d="M221.114 284.058H79.0284C76.9664 284.058 75.2954 282.387 75.2954 280.325V276.145C75.2954 274.084 76.9664 272.412 79.0284 272.412H221.114C223.176 272.412 224.847 274.083 224.847 276.145V280.325C224.847 282.387 223.176 284.058 221.114 284.058Z" fill="#DFDBFC"/>
</svg>
