<svg width="48" height="47" viewBox="0 0 48 47" fill="none" xmlns="http://www.w3.org/2000/svg">
<g clip-path="url(#clip0_204_118)">
<path d="M0 14.5792C0 8.35769 3.83632 2.74813 9.87831 1.26425C19.9862 -1.2182 35.2427 -3.26324 42.753 4.24707C49.0925 10.5867 48.6236 22.4456 46.8302 32.0683C45.1204 41.2426 36.587 47 27.2548 47H7.5C3.35787 47 0 43.6421 0 39.5V14.5792Z" fill="#FE705A"/>
<path d="M29.8389 31.8776C29.8818 31.8562 29.9247 31.5877 29.9677 31.0722C30.0321 30.5353 30.0966 29.9125 30.161 29.2037C30.2255 28.495 30.2792 27.7648 30.3221 27.013C30.365 26.2614 30.3973 25.6386 30.4187 25.1446C30.4187 24.8654 30.4187 24.4681 30.4187 23.9526C30.4402 23.4371 30.451 22.868 30.451 22.2451C30.451 21.6009 30.451 20.9351 30.451 20.2478C30.4724 19.5605 30.4724 18.9162 30.451 18.3149C30.451 17.6921 30.4402 17.1444 30.4187 16.6719C30.4187 16.1994 30.4187 15.8558 30.4187 15.641C30.4187 15.5551 30.3865 15.4048 30.3221 15.1899C30.2792 14.9752 30.2255 14.7497 30.161 14.5135C30.1181 14.2772 30.0644 14.0625 30 13.8691C29.9355 13.6544 29.8818 13.5041 29.8389 13.4181C29.0871 13.3537 28.3247 13.3966 27.5516 13.547C26.7783 13.6973 26.0159 13.8691 25.2642 14.0625C24.5126 14.2557 23.7608 14.4168 23.0092 14.5457C22.279 14.6746 21.5809 14.6746 20.9151 14.5457C20.7433 14.1805 20.9044 13.8154 21.3983 13.4504C21.9138 13.0637 22.6548 12.7308 23.6213 12.4516C24.5877 12.151 25.7152 11.9147 27.0039 11.7429C28.2925 11.5496 29.624 11.4637 30.9986 11.4852C32.3731 11.5066 33.7262 11.657 35.0577 11.9362C36.3894 12.1939 37.5813 12.6234 38.6337 13.2249C39.6861 13.8047 40.5344 14.5672 41.1787 15.5122C41.8231 16.4571 42.1452 17.6276 42.1452 19.0236C42.1452 19.5176 42.0592 20.0438 41.8874 20.6022C41.7157 21.1606 41.4902 21.719 41.211 22.2774C40.9532 22.8358 40.6526 23.3727 40.3089 23.8882C39.9867 24.3821 39.6646 24.801 39.3424 25.1446C39.1921 25.3164 38.9451 25.5849 38.6015 25.9499C38.2578 26.2936 37.8605 26.6909 37.4095 27.1419C36.9799 27.593 36.5182 28.0654 36.0242 28.5594C35.5303 29.0319 35.0577 29.4937 34.6067 29.9447C34.1772 30.3742 33.7799 30.7608 33.4148 31.1044C33.0711 31.4481 32.8135 31.7058 32.6416 31.8776C32.5772 32.3931 32.4912 32.8656 32.3839 33.2951C32.2765 33.7246 32.1154 34.0575 31.9007 34.2938C31.6859 34.53 31.4067 34.6374 31.0631 34.616C30.7409 34.616 30.3328 34.4442 29.8389 34.1005C29.3663 34.4226 28.8616 34.8737 28.3247 35.4536C27.8093 36.0549 27.2723 36.6241 26.7139 37.161C26.1555 37.7194 25.5757 38.1596 24.9743 38.4818C24.3729 38.804 23.7716 38.8362 23.1703 38.5785V37.4509L29.8389 31.8776ZM32.6416 29.6226C33.9946 29.0642 35.1866 28.248 36.2175 27.1741C37.2699 26.0788 38.0968 24.8868 38.6981 23.5982C39.3209 22.3096 39.6968 21.0102 39.8256 19.7002C39.9545 18.3686 39.7935 17.1981 39.3424 16.1887C38.8914 15.1793 38.1183 14.406 37.0229 13.8691C35.9491 13.3107 34.4887 13.1604 32.6416 13.4181V29.6226Z" fill="white"/>
<path d="M10.1751 33.9069C10.1536 33.5204 10.1214 32.9405 10.0784 32.1673C10.057 31.3726 10.0247 30.4813 9.98178 29.4934C9.96035 28.484 9.92809 27.4317 9.88516 26.3363C9.84222 25.241 9.7992 24.1993 9.75627 23.2114C9.73484 22.2235 9.71333 21.3429 9.69182 20.5697C9.6704 19.775 9.65964 19.1845 9.65964 18.7979C9.65964 18.669 9.64889 18.4542 9.62738 18.1535C9.62738 17.8314 9.62738 17.4985 9.62738 17.1549C9.62738 16.7898 9.62738 16.4461 9.62738 16.124C9.64889 15.8018 9.65964 15.5763 9.65964 15.4475C9.40195 15.5763 9.09049 15.8018 8.72539 16.124C8.38175 16.4461 8.00591 16.8005 7.59784 17.1871C7.18978 17.5522 6.77098 17.8958 6.34144 18.218C5.93338 18.5187 5.54679 18.7119 5.18168 18.7979C4.68771 18.4972 4.4622 18.1321 4.50515 17.7025C4.54811 17.2515 4.78435 16.779 5.21389 16.2851C5.66491 15.7696 6.25553 15.2434 6.98575 14.7065C7.73745 14.1695 8.55357 13.6541 9.43413 13.1602C10.3362 12.6661 11.2596 12.2151 12.2046 11.8071C13.1497 11.399 14.041 11.0661 14.8786 10.8085C15.7376 10.5293 16.4893 10.3574 17.1336 10.293C17.7995 10.207 18.2934 10.25 18.6156 10.4218C19.2169 11.0446 19.5068 11.8178 19.4853 12.7413C19.4639 13.6649 19.2598 14.6528 18.8732 15.7052C18.4867 16.7575 17.982 17.8529 17.3591 18.9911C16.7364 20.1294 16.1349 21.2355 15.5551 22.3093C14.9752 23.3617 14.4812 24.3604 14.0732 25.3054C13.6651 26.2289 13.4718 27.0236 13.4932 27.6893C13.5148 28.3551 13.8261 28.8491 14.4276 29.1713C15.0289 29.4934 16.0491 29.5685 17.488 29.3968C18.2182 29.225 18.9806 28.9565 19.7753 28.5914C20.57 28.2048 21.3431 27.786 22.0948 27.3349C22.8465 26.8625 23.5445 26.3685 24.1888 25.8531C24.8546 25.3376 25.4131 24.8544 25.864 24.4034C26.6157 24.5966 27.0346 24.8758 27.1204 25.241C27.2063 25.6061 27.056 26.0141 26.6694 26.4652C26.3044 26.9162 25.746 27.3886 24.9942 27.8827C24.2425 28.3766 23.3942 28.8598 22.4492 29.3324C21.5042 29.7834 20.5163 30.1914 19.4853 30.5565C18.4759 30.9216 17.4988 31.2008 16.5538 31.3941C15.6302 31.5874 14.7926 31.6733 14.041 31.6518C13.3108 31.6304 12.7738 31.4478 12.4301 31.1042C12.4301 31.2331 12.4195 31.4586 12.398 31.7807C12.3764 32.1029 12.3335 32.4465 12.2691 32.8117C12.2046 33.1552 12.0972 33.4881 11.9469 33.8103C11.7966 34.1109 11.5819 34.3257 11.3027 34.4546C11.0664 34.562 10.8409 34.5405 10.6261 34.3901C10.4328 34.2398 10.2825 34.0788 10.1751 33.9069ZM11.8825 26.8196L17.8101 13.5789C17.6598 13.085 17.4021 12.7413 17.037 12.548C16.6933 12.3333 16.296 12.2366 15.845 12.2581C15.394 12.2581 14.9323 12.3548 14.4597 12.548C13.9873 12.7413 13.5469 12.9776 13.1389 13.2568C12.7524 13.5145 12.4301 13.8045 12.1724 14.1266C11.9148 14.4273 11.7859 14.7065 11.7859 14.9642L11.8825 26.8196Z" fill="white"/>
</g>
<defs>
<clipPath id="clip0_204_118">
<rect width="48" height="48" fill="white" transform="translate(0 -1)"/>
</clipPath>
</defs>
</svg>
